<svg width="2000" height="1400" xmlns="http://www.w3.org/2000/svg"><style>.shadow_right{-webkit-filter:drop-shadow(-5px -5px 15px #1d03ff);filter:drop-shadow(-5px -5px 15px #1d03ff)}.shadow_left{-webkit-filter:drop-shadow(5px 5px 15px #1d03ff);filter:drop-shadow(5px 5px 15px #1d03ff)}</style><defs><linearGradient id="gradient__0" x1="0" y1="0" x2="0" y2="1"><stop stop-color="#1d03ff" offset="0%"/><stop stop-color="#7f86f3" offset="20%"/><stop stop-color="#efedff" offset="40%"/><stop stop-color="#efedff" offset="60%"/><stop stop-color="#7f86f3" offset="80%"/><stop stop-color="#1d03ff" offset="100%"/></linearGradient><filter id="grain" x="-1000" y="-700" width="4000" height="2800" filterUnits="userSpaceOnUse">&gt;<feFlood flood-color="#fff" result="neutral-gray"/><feTurbulence type="fractalNoise" baseFrequency="2.5" numOctaves="100" stitchTiles="stitch" result="noise"/><feColorMatrix in="noise" type="saturate" values="0" result="destaturatedNoise"/><feComponentTransfer in="desaturatedNoise" result="theNoise"><feFuncA type="table" tableValues="0 0 0.4 0"/></feComponentTransfer><feBlend in="SourceGraphic" in2="theNoise" mode="soft-light" result="noisy-image"/></filter></defs><g filter="url(#grain)"><path fill="#1d03ff" d="M0 0h2000v1400H0z"/><path id="rect__4" fill="url(#gradient__0)" d="M888.889 311.111h222.222v777.778H888.889z"/><path class="shadow_left" id="rect__5" fill="url(#gradient__0)" d="M1111.111 233.333h222.222v933.333h-222.222z"/><path class="shadow_left" id="rect__6" fill="url(#gradient__0)" d="M1333.333 155.556h222.222v1088.889h-222.222z"/><path class="shadow_left" id="rect__7" fill="url(#gradient__0)" d="M1555.556 77.778h222.222v1244.444h-222.222z"/><path class="shadow_left" id="rect__8" fill="url(#gradient__0)" d="M1777.778 0H2000v1400h-222.222z"/><path class="shadow_right" id="rect__3" fill="url(#gradient__0)" d="M666.667 233.333h222.222v933.333H666.667z"/><path class="shadow_right" id="rect__2" fill="url(#gradient__0)" d="M444.444 155.556h222.222v1088.889H444.444z"/><path class="shadow_right" id="rect__1" fill="url(#gradient__0)" d="M222.222 77.778h222.222v1244.444H222.222z"/><path class="shadow_right" id="rect__0" fill="url(#gradient__0)" d="M0 0h222.222v1400H0z"/></g></svg>