<svg id="visual" viewBox="0 0 900 600" width="900" height="600" xmlns="http://www.w3.org/2000/svg" xmlns:xlink="http://www.w3.org/1999/xlink" version="1.1"><rect x="0" y="0" width="900" height="600" fill="#fff"></rect><defs><linearGradient id="grad1_0" x1="33.3%" y1="0%" x2="100%" y2="100%"><stop offset="20%" stop-color="#ffffff" stop-opacity="1"></stop><stop offset="80%" stop-color="#ffffff" stop-opacity="1"></stop></linearGradient></defs><defs><linearGradient id="grad2_0" x1="0%" y1="0%" x2="66.7%" y2="100%"><stop offset="20%" stop-color="#ffffff" stop-opacity="1"></stop><stop offset="80%" stop-color="#ffffff" stop-opacity="1"></stop></linearGradient></defs><g transform="translate(900, 0)"><path d="M0 243.4C-32.9 251.3 -65.8 259.2 -75.2 231.5C-84.6 203.7 -70.6 140.2 -88.2 121.4C-105.7 102.5 -154.8 128.3 -169.1 122.8C-183.3 117.4 -162.7 80.7 -169.3 55C-175.9 29.3 -209.6 14.7 -243.4 0L0 0Z" fill="#6BAA44"></path></g><g transform="translate(0, 600)"><path d="M0 -243.4C16.3 -216.7 32.5 -190.1 61.5 -189.3C90.4 -188.4 132.1 -213.4 143.1 -196.9C154 -180.4 134.4 -122.5 126.2 -91.7C118 -60.9 121.2 -57.1 142.7 -46.4C164.1 -35.6 203.7 -17.8 243.4 0L0 0Z" fill="#6BAA44"></path></g></svg>