<svg id="visual" viewBox="0 0 900 600" width="900" height="600" xmlns="http://www.w3.org/2000/svg" xmlns:xlink="http://www.w3.org/1999/xlink" version="1.1"><rect x="0" y="0" width="900" height="600" fill="#fff"></rect><defs><linearGradient id="grad1_0" x1="33.3%" y1="0%" x2="100%" y2="100%"><stop offset="20%" stop-color="#ffffff" stop-opacity="1"></stop><stop offset="80%" stop-color="#ffffff" stop-opacity="1"></stop></linearGradient></defs><defs><linearGradient id="grad2_0" x1="0%" y1="0%" x2="66.7%" y2="100%"><stop offset="20%" stop-color="#ffffff" stop-opacity="1"></stop><stop offset="80%" stop-color="#ffffff" stop-opacity="1"></stop></linearGradient></defs><g transform="translate(900, 0)"><path d="M0 243.4C-16.6 249.3 -33.2 255.1 -42.3 239.7C-51.3 224.2 -52.7 187.4 -66.7 183.2C-80.7 179.1 -107.2 207.5 -120 207.8C-132.8 208.2 -131.9 180.6 -141.4 168.5C-150.9 156.5 -170.9 160.1 -183.9 154.3C-196.8 148.5 -202.6 133.3 -204.4 118C-206.2 102.7 -203.9 87.1 -202 73.5C-200.2 59.9 -198.9 48.2 -205.8 36.3C-212.8 24.4 -228.1 12.2 -243.4 0L0 0Z" fill="#0F1C4C"></path></g><g transform="translate(0, 600)"><path d="M0 -243.4C15.6 -246.8 31.1 -250.2 42 -238.3C52.9 -226.4 59.1 -199.2 68.4 -187.9C77.7 -176.6 90 -181.2 107 -185.3C124 -189.5 145.8 -193.1 153.6 -183.1C161.5 -173 155.4 -149.3 163.9 -137.6C172.5 -125.8 195.5 -126.2 201.8 -116.5C208 -106.8 197.4 -87.2 203 -73.9C208.5 -60.5 230.2 -53.5 239.7 -42.3C249.1 -31 246.2 -15.5 243.4 0L0 0Z" fill="#0F1C4C"></path></g></svg>