<svg id="visual" viewBox="0 0 900 600" width="900" height="600" xmlns="http://www.w3.org/2000/svg" xmlns:xlink="http://www.w3.org/1999/xlink" version="1.1"><path d="M0 103L13.7 92C27.3 81 54.7 59 82 54C109.3 49 136.7 61 163.8 69C191 77 218 81 245.2 78C272.3 75 299.7 65 327 60C354.3 55 381.7 55 409 52C436.3 49 463.7 43 491 40C518.3 37 545.7 37 573 37C600.3 37 627.7 37 654.8 39C682 41 709 45 736.2 53C763.3 61 790.7 73 818 74C845.3 75 872.7 65 886.3 60L900 55L900 0L886.3 0C872.7 0 845.3 0 818 0C790.7 0 763.3 0 736.2 0C709 0 682 0 654.8 0C627.7 0 600.3 0 573 0C545.7 0 518.3 0 491 0C463.7 0 436.3 0 409 0C381.7 0 354.3 0 327 0C299.7 0 272.3 0 245.2 0C218 0 191 0 163.8 0C136.7 0 109.3 0 82 0C54.7 0 27.3 0 13.7 0L0 0Z" fill="#6198ff"></path><path d="M0 187L13.7 189C27.3 191 54.7 195 82 184C109.3 173 136.7 147 163.8 144C191 141 218 161 245.2 161C272.3 161 299.7 141 327 137C354.3 133 381.7 145 409 157C436.3 169 463.7 181 491 189C518.3 197 545.7 201 573 186C600.3 171 627.7 137 654.8 122C682 107 709 111 736.2 133C763.3 155 790.7 195 818 200C845.3 205 872.7 175 886.3 160L900 145L900 53L886.3 58C872.7 63 845.3 73 818 72C790.7 71 763.3 59 736.2 51C709 43 682 39 654.8 37C627.7 35 600.3 35 573 35C545.7 35 518.3 35 491 38C463.7 41 436.3 47 409 50C381.7 53 354.3 53 327 58C299.7 63 272.3 73 245.2 76C218 79 191 75 163.8 67C136.7 59 109.3 47 82 52C54.7 57 27.3 79 13.7 90L0 101Z" fill="#3c80ff"></path><path d="M0 385L13.7 384C27.3 383 54.7 381 82 373C109.3 365 136.7 351 163.8 337C191 323 218 309 245.2 307C272.3 305 299.7 315 327 324C354.3 333 381.7 341 409 349C436.3 357 463.7 365 491 364C518.3 363 545.7 353 573 335C600.3 317 627.7 291 654.8 283C682 275 709 285 736.2 293C763.3 301 790.7 307 818 321C845.3 335 872.7 357 886.3 368L900 379L900 143L886.3 158C872.7 173 845.3 203 818 198C790.7 193 763.3 153 736.2 131C709 109 682 105 654.8 120C627.7 135 600.3 169 573 184C545.7 199 518.3 195 491 187C463.7 179 436.3 167 409 155C381.7 143 354.3 131 327 135C299.7 139 272.3 159 245.2 159C218 159 191 139 163.8 142C136.7 145 109.3 171 82 182C54.7 193 27.3 189 13.7 187L0 185Z" fill="#0066ff"></path><path d="M0 511L13.7 518C27.3 525 54.7 539 82 534C109.3 529 136.7 505 163.8 506C191 507 218 533 245.2 543C272.3 553 299.7 547 327 534C354.3 521 381.7 501 409 493C436.3 485 463.7 489 491 497C518.3 505 545.7 517 573 522C600.3 527 627.7 525 654.8 520C682 515 709 507 736.2 513C763.3 519 790.7 539 818 544C845.3 549 872.7 539 886.3 534L900 529L900 377L886.3 366C872.7 355 845.3 333 818 319C790.7 305 763.3 299 736.2 291C709 283 682 273 654.8 281C627.7 289 600.3 315 573 333C545.7 351 518.3 361 491 362C463.7 363 436.3 355 409 347C381.7 339 354.3 331 327 322C299.7 313 272.3 303 245.2 305C218 307 191 321 163.8 335C136.7 349 109.3 363 82 371C54.7 379 27.3 381 13.7 382L0 383Z" fill="#0059dd"></path><path d="M0 601L13.7 601C27.3 601 54.7 601 82 601C109.3 601 136.7 601 163.8 601C191 601 218 601 245.2 601C272.3 601 299.7 601 327 601C354.3 601 381.7 601 409 601C436.3 601 463.7 601 491 601C518.3 601 545.7 601 573 601C600.3 601 627.7 601 654.8 601C682 601 709 601 736.2 601C763.3 601 790.7 601 818 601C845.3 601 872.7 601 886.3 601L900 601L900 527L886.3 532C872.7 537 845.3 547 818 542C790.7 537 763.3 517 736.2 511C709 505 682 513 654.8 518C627.7 523 600.3 525 573 520C545.7 515 518.3 503 491 495C463.7 487 436.3 483 409 491C381.7 499 354.3 519 327 532C299.7 545 272.3 551 245.2 541C218 531 191 505 163.8 504C136.7 503 109.3 527 82 532C54.7 537 27.3 523 13.7 516L0 509Z" fill="#004cbb"></path></svg>