<svg xmlns="http://www.w3.org/2000/svg" version="1.1" xmlns:xlink="http://www.w3.org/1999/xlink" xmlns:svgjs="http://svgjs.dev/svgjs" width="1440" height="560" preserveAspectRatio="none" viewBox="0 0 1440 560"><g mask="url(&quot;#SvgjsMask1000&quot;)" fill="none"><rect width="1440" height="560" x="0" y="0" fill="#0e2a47"></rect><path d="M 0,267 C 57.6,232.8 172.8,95.2 288,96 C 403.2,96.8 460.8,284.8 576,271 C 691.2,257.2 748.8,39.4 864,27 C 979.2,14.6 1036.8,201.4 1152,209 C 1267.2,216.6 1382.4,93.8 1440,65L1440 560L0 560z" fill="#184a7e"></path><path d="M 0,414 C 96,439.6 288,544.4 480,542 C 672,539.6 768,418 960,402 C 1152,386 1344,450 1440,462L1440 560L0 560z" fill="#2264ab"></path></g><defs><mask id="SvgjsMask1000"><rect width="1440" height="560" fill="#ffffff"></rect></mask></defs></svg>