<svg xmlns="http://www.w3.org/2000/svg" version="1.1" xmlns:xlink="http://www.w3.org/1999/xlink" xmlns:svgjs="http://svgjs.dev/svgjs" viewBox="0 0 1422 800"><g shape-rendering="crispEdges" stroke-linejoin="round" fill="#0f1c4c"><polygon points="1066.5,200 1422,0 1422,200"></polygon><polygon points="1066.5,100 1066.5,0 888.75,0"></polygon><polygon points="711,100 711,0 888.75,100"></polygon><polygon points="799.875,150 888.75,150 799.875,100"></polygon><polygon points="711,150 799.875,150 711,100"></polygon><polygon points="799.875,200 799.875,150 711,150"></polygon><polygon points="888.75,200 888.75,150 799.875,200"></polygon><polygon points="1066.5,200 888.75,200 1066.5,100"></polygon><polygon points="1066.5,200 888.75,300 1066.5,300"></polygon><polygon points="888.75,300 888.75,200 711,200"></polygon><polygon points="711,300 888.75,400 711,400"></polygon><polygon points="888.75,400 1066.5,300 888.75,300"></polygon><polygon points="1244.25,300 1244.25,200 1422,200"></polygon><polygon points="1244.25,300 1244.25,200 1066.5,300"></polygon><polygon points="1244.25,300 1155.375,300 1155.375,350"></polygon><polygon points="1155.375,350 1155.375,300 1066.5,300"></polygon><polygon points="1155.375,400 1155.375,350 1066.5,400"></polygon><polygon points="1244.25,400 1244.25,350 1155.375,400"></polygon><polygon points="1244.25,300 1244.25,400 1422,400"></polygon><polygon points="711,0 533.25,100 533.25,0"></polygon><polygon points="355.5,100 533.25,0 533.25,100"></polygon><polygon points="355.5,100 533.25,200 355.5,200"></polygon><polygon points="711,100 711,200 533.25,200"></polygon><polygon points="355.5,100 355.5,0 177.75,100"></polygon><polygon points="177.75,0 0,0 177.75,100"></polygon><polygon points="177.75,100 177.75,200 0,100"></polygon><polygon points="355.5,200 177.75,200 355.5,100"></polygon><polygon points="355.5,300 355.5,200 177.75,200"></polygon><polygon points="177.75,300 177.75,200 0,300"></polygon><polygon points="0,300 177.75,400 177.75,300"></polygon><polygon points="355.5,400 355.5,300 177.75,300"></polygon><polygon points="711,200 622.125,250 711,250"></polygon><polygon points="622.125,250 533.25,250 622.125,200"></polygon><polygon points="622.125,300 622.125,250 533.25,300"></polygon><polygon points="622.125,300 711,250 711,300"></polygon><polygon points="533.25,200 355.5,200 355.5,300"></polygon><polygon points="533.25,300 355.5,400 355.5,300"></polygon><polygon points="533.25,300 711,400 533.25,400"></polygon><polygon points="711,450 622.125,400 711,400"></polygon><polygon points="622.125,450 622.125,400 533.25,450"></polygon><polygon points="622.125,500 533.25,500 622.125,450"></polygon><polygon points="711,500 622.125,500 711,450"></polygon><polygon points="533.25,400 533.25,500 355.5,500"></polygon><polygon points="533.25,600 533.25,500 355.5,500"></polygon><polygon points="711,600 533.25,600 533.25,500"></polygon><polygon points="177.75,400 355.5,400 355.5,500"></polygon><polygon points="177.75,400 0,400 0,500"></polygon><polygon points="177.75,600 177.75,500 0,600"></polygon><polygon points="177.75,600 355.5,600 177.75,500"></polygon><polygon points="355.5,800 0,800 0,600"></polygon><polygon points="533.25,600 711,700 711,600"></polygon><polygon points="355.5,600 533.25,700 355.5,700"></polygon><polygon points="533.25,800 533.25,700 355.5,700"></polygon><polygon points="711,800 711,700 533.25,800"></polygon><polygon points="1422,400 1244.25,400 1244.25,500"></polygon><polygon points="1066.5,500 1244.25,400 1244.25,500"></polygon><polygon points="1244.25,550 1244.25,500 1155.375,550"></polygon><polygon points="1066.5,500 1155.375,500 1066.5,550"></polygon><polygon points="1155.375,550 1066.5,600 1066.5,550"></polygon><polygon points="1244.25,550 1244.25,600 1155.375,600"></polygon><polygon points="1422,600 1422,500 1244.25,600"></polygon><polygon points="1066.5,400 977.625,450 977.625,400"></polygon><polygon points="888.75,450 888.75,400 977.625,400"></polygon><polygon points="977.625,500 977.625,450 888.75,450"></polygon><polygon points="1066.5,450 1066.5,500 977.625,500"></polygon><polygon points="888.75,400 888.75,450 799.875,400"></polygon><polygon points="799.875,450 711,400 711,450"></polygon><polygon points="799.875,500 799.875,450 711,450"></polygon><polygon points="888.75,450 799.875,500 888.75,500"></polygon><polygon points="888.75,500 888.75,600 711,600"></polygon><polygon points="1066.5,500 1066.5,600 888.75,600"></polygon><polygon points="1066.5,700 1066.5,600 888.75,600"></polygon><polygon points="888.75,700 888.75,600 711,600"></polygon><polygon points="711,800 888.75,700 888.75,800"></polygon><polygon points="1066.5,800 1066.5,700 888.75,800"></polygon><polygon points="1244.25,600 1422,600 1244.25,700"></polygon><polygon points="1244.25,600 1066.5,700 1244.25,700"></polygon><polygon points="1244.25,800 1244.25,700 1066.5,800"></polygon><polygon points="1422,800 1244.25,700 1244.25,800"></polygon></g><g fill="hsl(220, 62%, 45%)" stroke-width="3" stroke="hsl(220, 43%, 13%)"></g></svg>