<svg width="75" height="72" viewBox="0 0 75 72" fill="none" xmlns="http://www.w3.org/2000/svg">
<g clip-path="url(#clip0_14030_984)">
<mask id="mask0_14030_984" style="mask-type:luminance" maskUnits="userSpaceOnUse" x="0" y="0" width="75" height="72">
<path d="M73.2422 0H1.75781C0.786999 0 0 0.786999 0 1.75781V69.7266C0 70.6974 0.786999 71.4844 1.75781 71.4844H73.2422C74.213 71.4844 75 70.6974 75 69.7266V1.75781C75 0.786999 74.213 0 73.2422 0Z" fill="white"/>
</mask>
<g mask="url(#mask0_14030_984)">
<path d="M0 0.00219727H75V71.4826H0V0.00219727Z" fill="#FEFEFE"/>
<path d="M0 0.00219727H75V71.4826H0V0.00219727ZM1.79443 0.405007L1.42822 0.478246L1.06201 0.66134L0.769043 0.954294L0.549316 1.32048L0.476074 1.57682V56.7251L5.896 56.7618H70.0195L74.524 56.7251L74.5605 54.3449V3.99368L74.524 1.61344L74.4141 1.24724L74.1943 0.917674L73.8647 0.624722L73.5717 0.478246L73.2422 0.405007H1.79443Z" fill="#676C71"/>
<path d="M36.6211 11.2805H38.5986L39.7338 11.427L40.7227 11.6467L41.7115 11.9763L42.627 12.3791L43.4693 12.8552L44.165 13.3312L44.6412 13.6974L45.1904 14.1734V14.2832L42.0045 17.4691L41.8213 17.3959L41.5283 17.1396L40.9424 16.7368L40.5029 16.4804L39.8072 16.1874L39.0381 15.9678L38.3057 15.8579H36.9873L36.2916 15.9678L35.4127 16.2241L34.7534 16.5171L34.0576 16.9198L33.5815 17.286L33.0689 17.7255L32.666 18.165L32.2266 18.7508L31.897 19.3002L31.6041 19.886L31.3842 20.5085L31.2012 21.1676L31.0547 22.1198V23.1451L31.2012 24.0605L31.3842 24.6832L31.4209 24.9394L31.6041 25.3057L31.897 25.9282L32.2266 26.4409L32.5928 26.9169L33.0322 27.4296L33.3252 27.6859L33.7646 28.0521L34.3139 28.4183L35.083 28.821L35.6689 29.0408L36.1816 29.1873L37.1338 29.3337H38.0494L38.7451 29.2605L39.3677 29.1506L40.1367 28.931L40.7959 28.638L41.3452 28.345H41.565L41.6748 28.4548L42.1143 28.7845L43.4326 29.8098L43.7988 30.1027L44.751 30.8351L45.0073 31.0182L45.0439 31.1647L44.6045 31.6041L43.9087 32.1168L43.1763 32.5562L42.5904 32.8491L41.8213 33.1788L41.272 33.3618L40.2466 33.6181L39.3311 33.7646L38.7084 33.8378H36.8041L35.8521 33.728L34.9365 33.5449L33.9478 33.2519L33.0322 32.8858L32.3365 32.5196L31.8604 32.2632L31.3477 31.9337L30.835 31.5675L30.4322 31.2379L29.6998 30.5787L29.4068 30.2858L29.1504 29.9929L28.6744 29.407L28.308 28.8943L27.8686 28.1985L27.3926 27.3196L27.0264 26.4409L26.7334 25.5254L26.5137 24.5L26.4038 23.6578L26.3672 23.0718V22.0099L26.4404 21.1311L26.5869 20.2522L26.8066 19.3733L27.0996 18.4945L27.5025 17.579L27.8686 16.8833L28.308 16.1874L28.8209 15.4917L29.1138 15.1621L29.3701 14.8692L29.7363 14.4664L30.0293 14.21L30.4322 13.8439L31.0547 13.3678L31.5307 13.0382L32.1533 12.672L32.9955 12.2326L34.0209 11.8298L34.8998 11.5735L35.7788 11.3904L36.6211 11.2805Z" fill="#EE4932"/>
<path d="M31.3848 24.7571H31.4581L31.5312 24.9768L31.8609 25.7091L32.1539 26.2218L32.5201 26.7345L32.8496 27.1373L33.106 27.4302L33.399 27.6865L33.8384 28.0527L34.3878 28.419L35.1568 28.8217L35.7427 29.0415L36.2554 29.1879L37.2076 29.3344H38.123L38.8189 29.2612L39.4414 29.1514L40.2105 28.9317L40.8697 28.6387L41.4191 28.3457H41.6387L41.7486 28.4556L42.188 28.7852L43.5064 29.8104L43.8726 30.1034L44.8248 30.8358L45.0812 31.0189L45.1177 31.1654L44.6783 31.6048L43.9824 32.1175L43.25 32.557L42.6641 32.8498L41.8951 33.1795L41.3457 33.3625L40.3203 33.6189L39.4048 33.7654L38.7823 33.8386H36.878L35.9258 33.7287L35.0103 33.5457L34.0215 33.2527L33.106 32.8865L32.4102 32.5203L31.9341 32.264L31.4214 31.9343L30.9087 31.5683L30.5059 31.2386L29.7734 30.5795L29.4805 30.2866L29.2242 29.9936L28.748 29.4077L28.382 28.895L27.9425 28.1992L27.7227 27.7965V27.6133L28.382 27.1007L28.8945 26.6978L29.3707 26.3317L29.7369 26.0388L30.2129 25.6725L30.7257 25.2698L31.3116 24.7936L31.3848 24.7571Z" fill="#00AD57"/>
<path d="M37.8295 20.509H48.2666L48.3033 20.5456L48.4863 21.9372L48.5229 22.5597V23.585L48.4498 24.5004L48.2666 25.6356L47.9736 26.7343L47.6074 27.723L47.2779 28.4187L46.875 29.1145L46.6186 29.5174L46.2891 29.9567L45.9961 30.3229L45.5932 30.7624L45.2271 31.1286L44.8608 30.9088L44.4947 30.6159L43.9819 30.2131L42.9932 29.4441L42.4805 29.0412L41.8213 28.5286L41.6381 28.4187L41.565 28.2357L41.9678 27.906L42.3705 27.5398L42.7369 27.0638L43.0664 26.5145L43.3228 25.9653L43.5424 25.3061L43.6158 24.9033H39.1846L37.793 24.8667V20.5456L37.8295 20.509Z" fill="#0080C5"/>
<path d="M27.649 17.4329L27.832 17.6159L28.1616 17.9089L28.7475 18.3483L29.2969 18.7878L29.9194 19.2638L30.4322 19.6666L30.9082 20.0328L31.2377 20.2891L31.4576 20.4356L31.3111 21.0215L31.1646 21.8272L31.1279 22.1201V23.1454L31.2744 24.0609L31.4576 24.6834V24.7566L31.2377 24.9031L30.6518 25.3792L29.6998 26.1115L29.187 26.5144L28.5645 26.9904L28.0151 27.4299L27.7588 27.6129L27.6855 27.7227L27.3926 27.1369L27.0996 26.4412L26.8066 25.5256L26.5869 24.5003L26.4771 23.6581L26.4404 23.0722V22.0102L26.5137 21.1314L26.6602 20.2525L26.8799 19.3736L27.1729 18.4948L27.5756 17.5793L27.649 17.4329Z" fill="#F9AB1B"/>
<path d="M28.5639 41.7847H29.2231L29.6992 41.9312L30.1752 42.2608L30.1387 41.9312L30.1752 41.8946H30.9442V45.8129L30.8711 46.2889L30.7246 46.6917L30.4682 47.0579L30.102 47.3508L29.6625 47.5339L29.3329 47.6071H28.747L28.2344 47.4973L27.8315 47.2776L27.4653 46.9481L27.2821 46.6551L27.209 46.3987L27.502 46.2522L27.868 46.1057H27.9414L28.161 46.4719L28.4174 46.6917L28.7104 46.8016L28.8569 46.8381H29.1864L29.6625 46.6917L29.9555 46.4354L30.102 46.0326L30.1752 45.5565L29.8457 45.7396L29.4794 45.9227L29.2231 45.9959H28.6371L28.161 45.8494L27.7582 45.5931L27.502 45.3367L27.209 44.8242L27.0625 44.348V43.4692L27.209 42.9199L27.4653 42.4805L27.7216 42.1876L28.0512 41.9678L28.5639 41.7847Z" fill="#676C71"/>
<path d="M24.2804 41.7847H24.9761L25.3789 41.8946L25.8184 42.1143L26.1847 42.4438L26.441 42.8101L26.6241 43.2861L26.6973 43.6523V44.0917L26.5875 44.6044L26.2945 45.1903L26.0015 45.5199L25.5987 45.7762L25.1226 45.9594L24.9395 45.9959H24.3535L23.8409 45.8494L23.438 45.6297L23.0718 45.3002L22.8155 44.8974L22.6324 44.3847L22.5957 44.2015V43.6157L22.7422 43.0298L22.9986 42.5538L23.255 42.2608L23.6945 41.9678L24.0972 41.8213L24.2804 41.7847Z" fill="#676C71"/>
<path d="M19.812 41.7847H20.5444L21.0205 41.9312L21.3135 42.0776L21.6797 42.3706L21.9361 42.7368L22.1191 43.103L22.2291 43.5425V44.2382L22.0459 44.8607L21.7896 45.2635L21.46 45.5931L21.167 45.7762L20.6543 45.9594L20.4712 45.9959H19.9584L19.3725 45.8494L18.8965 45.5565L18.6035 45.2635L18.3838 44.8974L18.2373 44.5678L18.1641 44.2748V43.5058L18.274 43.103L18.5303 42.5903L18.8599 42.2241L19.2627 41.9678L19.6289 41.8213L19.812 41.7847Z" fill="#676C71"/>
<path d="M39.0381 40.3564H41.1621L41.6381 40.4663L42.041 40.686L42.334 40.9789L42.5904 41.4184L42.6635 41.6747V42.3705L42.5537 42.7366L42.2974 43.1029L41.9678 43.3958L41.5283 43.6155L41.1621 43.6888L40.6861 43.7254H39.8438V45.8493H39.0381V40.3564Z" fill="#676C71"/>
<path d="M14.6113 40.2466H15.3438L15.9297 40.3564L16.5522 40.6494L16.8817 40.9056L17.0649 41.0888L16.9916 41.2353L16.5522 41.6746L16.4057 41.6014L16.1127 41.3451L15.6733 41.1254L15.3803 41.0521H14.6479L14.245 41.1621L13.8789 41.3451L13.476 41.6746L13.183 42.1141L13.0366 42.4803L12.9633 42.9197V43.3225L13.1098 43.9085L13.3295 44.3479L13.6957 44.7507L14.0985 45.007L14.5746 45.1535H15.4902L16.0028 44.9704L16.3691 44.714L16.6254 44.3845L16.8086 43.9817L16.8452 43.6521L14.9409 43.6155V42.8465H17.6141L17.6875 43.1028V43.6887L17.5776 44.238L17.3945 44.6774L17.1381 45.0437L16.9916 45.2267L16.5888 45.5564L16.0028 45.8492L15.5634 45.9591L15.3071 45.9957H14.6845L14.0254 45.8492L13.4395 45.5564L13.1098 45.2999L12.7436 44.9337L12.4141 44.4212L12.2309 43.9085L12.1211 43.3592V42.8831L12.2309 42.2606L12.4872 41.6746L12.8168 41.1986L13.1465 40.8691L13.5126 40.6127L13.8789 40.4296L14.3549 40.2831L14.6113 40.2466Z" fill="#676C71"/>
<path d="M48.1562 61.7053H48.5957L48.9252 61.7786L49.3281 61.9983L49.6211 62.2911L49.8407 62.6574L50.0239 63.17L50.0605 63.3898V64.3052L49.9141 64.8912L49.6577 65.4039L49.2914 65.77L48.852 65.9897L48.7055 66.0264H48.0463L47.6434 65.8799L47.4238 65.7334L47.2407 65.5869L47.0209 65.294L46.8379 64.9277L46.6914 64.3419V63.3165L46.8379 62.8038L47.0575 62.4011L47.3871 62.0349L47.7168 61.8151L48.1562 61.7053Z" fill="#FEFEFE"/>
<path d="M29.0039 61.5955H29.9194L30.0659 61.8884L30.6518 63.4631L31.0913 64.5983L31.1279 64.818L31.2012 64.7813L31.4209 64.1955L32.0068 62.6208L32.373 61.6687L32.483 61.5955H33.3252L33.3619 61.6321V65.9165H32.7026L32.666 65.88V62.9504L32.7026 62.8406H32.6295L32.5561 63.1701L31.9336 64.7813L31.5307 65.8067L31.4576 65.9165H30.9082L30.7983 65.7335L30.5053 65.001L29.9194 63.4631L29.6998 62.9504V65.9165H29.0039V61.5955Z" fill="#FEFEFE"/>
<path d="M74.7076 4.50562H74.8175V54.3076L74.671 54.2709L74.5977 53.8316V5.16476L74.6343 5.12814L74.671 4.57885L74.7076 4.50562Z" fill="#676C71"/>
<path d="M44.4586 41.7847H45.2277L45.7037 41.9312L46.0699 42.1509L46.3262 42.4438L46.5093 42.8101L46.546 42.9199V45.8861H46.1066L45.8136 45.8494V45.5565L45.5938 45.6664L45.2277 45.8861L44.8613 45.9959H44.3853L43.9459 45.8861L43.5796 45.6664L43.2867 45.3367L43.1402 45.0072L43.1035 44.8607V44.4579L43.1769 44.1283L43.3599 43.8354L43.6163 43.579L44.0558 43.3593L44.3853 43.2861H45.2277L45.8136 43.4326L45.7037 42.9931L45.4473 42.7003L45.0812 42.5538H44.5684L44.2023 42.7003L43.9459 42.9199L43.8726 43.0298L43.7261 42.9931L43.3234 42.7003L43.25 42.627L43.2867 42.4805L43.543 42.1876L44.0558 41.8946L44.4586 41.7847Z" fill="#676C71"/>
<path d="M58.2642 41.7847H58.9966L59.4727 41.9312L59.8755 42.1876L60.2051 42.5538L60.4615 43.103L60.5346 43.5058V44.0185L60.498 44.0917L57.5318 44.1283L57.6049 44.4579L57.7881 44.7875L57.9346 44.9706L58.2642 45.1537L58.4107 45.1903H59.0332L59.3994 45.0072L59.6924 44.6777L59.7656 44.5678L59.9487 44.6044L60.3881 44.7875L60.4615 44.934L60.2051 45.3367L59.8389 45.6664L59.3994 45.8861L58.96 45.9959H58.4107L57.9712 45.8861L57.4951 45.6297L57.2388 45.41L57.019 45.117L56.7994 44.6777L56.6895 44.165V43.6523L56.7994 43.103L57.0923 42.5171L57.4951 42.1143L58.0811 41.8213L58.2642 41.7847Z" fill="#676C71"/>
<path d="M34.643 41.7847H35.3754L35.8516 41.9312L36.2177 42.1509L36.5106 42.4438L36.8036 43.0298L36.9135 43.5425V43.9453L36.8403 44.0917H33.8739L34.0204 44.5312L34.2036 44.8242L34.4965 45.0805L34.7528 45.1903H35.4121L35.7782 45.0072L36.0346 44.7509L36.1445 44.5678L36.3276 44.6044L36.8403 44.8607L36.767 45.0438L36.6205 45.2635L36.4008 45.5199L36.0346 45.7762L35.6684 45.9227L35.3388 45.9959H34.7895L34.2768 45.8494L33.9838 45.703L33.6176 45.41L33.3613 45.0438L33.1782 44.641L33.0684 44.165V43.6157L33.2148 43.0298L33.4345 42.5903L33.7274 42.2241L34.1303 41.9678L34.4965 41.8213L34.643 41.7847Z" fill="#676C71"/>
<path d="M22.1929 61.5955H23.6945L24.0972 61.6321L24.4634 61.7786L24.8296 62.1082L25.0128 62.4011L25.0859 62.6208V63.2434L24.9395 63.5729L24.6832 63.9025L24.317 64.1223L24.1339 64.1588L24.6832 64.9645L25.1959 65.6968L25.2691 65.8067V65.9165H24.4634L24.1339 65.4771L23.548 64.5616L23.3648 64.3053L22.8887 64.2686V65.9165H22.1929L22.1562 65.88V61.6321L22.1929 61.5955Z" fill="#FEFEFE"/>
<path d="M39.0014 61.5955H40.5029L40.9791 61.6687L41.4185 61.8884L41.6748 62.1447L41.858 62.5109L41.8945 62.6574V63.1701L41.748 63.5729L41.4916 63.9025L41.1255 64.1223L40.9424 64.1588L41.3086 64.7081L41.8945 65.5503L42.1143 65.88V65.9165H41.272L41.0156 65.587L40.2832 64.4884L40.1733 64.3053L39.6607 64.2686V65.9165H39.0014L38.9648 65.88V61.6321L39.0014 61.5955Z" fill="#FEFEFE"/>
<path d="M18.7866 61.5955H20.1783L20.6177 61.6321L21.0572 61.8152L21.4233 62.1447L21.6431 62.5842V63.2799L21.4966 63.6461L21.2037 63.9758L20.8008 64.1955L20.5444 64.2686H19.4459V65.9165L19.2994 65.9532H18.7866L18.75 65.9165V61.6321L18.7866 61.5955Z" fill="#FEFEFE"/>
<path d="M54.3086 41.7847H55.041L55.4438 41.9312L55.7368 42.1509L55.9565 42.4438L56.103 42.8101L56.1395 42.9565L56.1762 43.8354V44.4579L56.1395 45.8494H55.3705L55.334 43.3593L55.2606 42.9931L55.1141 42.7735L54.9311 42.627L54.7114 42.5538H54.2719L53.9789 42.7003L53.686 43.0298L53.5395 43.4326L53.5028 45.8494H52.6973V41.8946H53.5028L53.4663 42.2241L53.7227 42.0776L54.0888 41.8579L54.3086 41.7847Z" fill="#676C71"/>
<path d="M35.7056 61.5955H38.2324L38.3057 61.6321V62.2912H36.3647L36.4014 63.4264L38.1225 63.4631V64.0856L38.0859 64.1223H36.3647V65.2575H37.8662L38.3057 65.294V65.9165L36.9506 65.9532H35.7422L35.6689 65.88V61.6321L35.7056 61.5955Z" fill="#FEFEFE"/>
<path d="M25.7447 61.5955H28.308L28.3447 61.6321V62.2546L28.308 62.2912H26.4038V63.4631H28.1616V64.0856L28.125 64.1223H26.4038V65.2575H27.6123L28.308 65.294L28.3447 65.3306V65.9165L25.7447 65.9532L25.708 65.9165V61.6321L25.7447 61.5955Z" fill="#FEFEFE"/>
<path d="M54.8217 61.7786H55.4077L56.1401 61.8151V62.4376L55.4443 62.4743H54.4922L54.3457 63.4263L54.7119 63.28L54.8951 63.2433H55.2979L55.6641 63.3531L56.0303 63.6095L56.25 63.9025L56.3965 64.2687V64.9644L56.25 65.3306L56.1035 65.5502L55.774 65.8432L55.4443 65.9897L55.2979 66.0264H54.6752L54.3091 65.9165L53.9062 65.6602L53.6498 65.294L53.54 65.001L53.5767 64.8545L54.0162 64.6715H54.1627L54.3457 65.0377L54.5288 65.2207L54.7486 65.3306L55.0416 65.3672L55.3345 65.2574L55.5908 65.0377L55.6641 64.8545V64.4152L55.5176 64.1222L55.2246 63.939L54.9316 63.9025L54.6387 63.9757L54.3457 64.1954L54.1627 64.1588L53.6498 63.9025L53.6865 63.3898L53.8697 61.9616L53.9062 61.8151L54.8217 61.7786Z" fill="#FEFEFE"/>
<path d="M50.4266 40.8325H51.2324L51.269 41.8578L52.1479 41.8945V42.6268H51.2324L51.269 44.9338L51.3789 45.1169L51.5985 45.2267L51.9282 45.1535L52.1479 45.0437V45.8493L51.9648 45.9591L51.8184 45.9958H51.3422L50.9395 45.8493L50.6098 45.5564L50.4633 45.2634L50.4266 45.0437L50.3901 42.6635L49.7676 42.6268V41.8945L50.3901 41.8578L50.4266 40.8325Z" fill="#676C71"/>
<path d="M51.4898 61.7053H51.9659L52.2955 61.7786L52.6617 61.9983L52.9546 62.3278L53.0645 62.6208L53.1011 63.0236L52.9913 63.463L52.7349 63.9025L52.4054 64.2687L51.4166 65.2574L53.1011 65.294L53.1378 65.3306V65.9165H50.4277V65.2574L51.9659 63.7193L52.2222 63.3898L52.332 63.1335V62.8038L52.149 62.5109L51.9293 62.4011H51.5265L51.2335 62.5841L51.0137 62.9503L50.4277 62.6574L50.4644 62.4743L50.6841 62.1448L50.9771 61.8884L51.3433 61.7419L51.4898 61.7053Z" fill="#FEFEFE"/>
<path d="M44.605 61.7053H45.1177L45.5206 61.8151L45.9234 62.1081L46.1431 62.4743L46.2164 62.8405L46.1797 63.2433L46.0699 63.5728L45.7037 64.0855L44.5318 65.2574L46.2164 65.294L46.253 65.3306V65.9165H43.543V65.294L43.7994 65.001L44.0191 64.8179L44.2754 64.525L45.1177 63.6827L45.4107 63.2799L45.4473 63.17V62.8038L45.3375 62.5841L45.0445 62.4011H44.6783L44.3853 62.5475L44.1656 62.9138L44.0191 62.8771L43.5796 62.694L43.543 62.5475L43.7628 62.1813L44.0558 61.925L44.3487 61.7786L44.605 61.7053Z" fill="#FEFEFE"/>
<path d="M24.3891 42.5171H24.8652L25.2313 42.6636L25.5243 42.8833L25.7807 43.2495L25.8906 43.6523V44.0185L25.8173 44.3847L25.5977 44.8242L25.3047 45.0805L24.9384 45.2269H24.3159L23.8764 45.0072L23.5834 44.6777L23.437 44.3481L23.4004 44.2017V43.5425L23.5834 43.103L23.913 42.7368L24.2793 42.5538L24.3891 42.5171Z" fill="#FEFEFE"/>
<path d="M19.959 42.5171H20.3984L20.8013 42.6636L21.0577 42.8467L21.314 43.2129L21.4238 43.5425L21.4605 43.9819L21.3507 44.4579L21.1675 44.7875L20.9112 45.0439L20.5084 45.2269H19.8859L19.5195 45.0805L19.2999 44.8974L19.0435 44.4946L18.9336 44.0552V43.7255L19.0435 43.2862L19.2632 42.9565L19.5929 42.6636L19.959 42.5171Z" fill="#FEFEFE"/>
<path d="M28.7842 42.5171H29.2236L29.5898 42.6636L29.8828 42.92L30.1025 43.3228L30.1758 43.6523V44.0552L30.0659 44.5312L29.8462 44.8607L29.5533 45.1171L29.3334 45.2269L28.9673 45.2636L28.601 45.1904L28.3447 45.0439L28.1616 44.8974L27.942 44.5312L27.832 44.1284V43.6157L27.9785 43.1763L28.1982 42.8467L28.4912 42.627L28.7842 42.5171Z" fill="#FEFEFE"/>
<path d="M48.1934 62.3645H48.5229L48.8525 62.511L49.0357 62.694L49.2188 62.987L49.3287 63.3165L49.3652 63.4997V64.2687L49.2553 64.6715L49.1088 64.9644L48.8892 65.2207L48.5962 65.3672L48.3398 65.4039L47.9736 65.294L47.7173 65.0742L47.4609 64.5617L47.3877 64.2687V63.4997L47.4975 63.0602L47.6807 62.7307L47.8638 62.5475L48.0834 62.4011L48.1934 62.3645Z" fill="#676C71"/>
<path d="M31.7139 40.3564H32.5195V45.6662L32.483 45.8859H31.7505L31.7139 45.8493V40.3564Z" fill="#676C71"/>
<path d="M62.5859 41.7847H63.2452L63.4283 41.8579V42.7368L63.0621 42.627H62.6226L62.3296 42.7735L62.1099 43.0298L61.9634 43.3228L61.9269 43.4692L61.8902 45.8494H61.1211V41.8946H61.8535V42.1876H61.9269L62.293 41.9312L62.5859 41.7847Z" fill="#676C71"/>
<path d="M48.7427 41.8579H49.3652L49.4018 41.8945V42.6635L49.3287 42.7001H48.8159L48.4498 42.8099L48.1934 43.0662L48.0469 43.3959L48.0103 43.5789L47.9736 45.9226H47.2045L47.168 43.3226V42.517L47.2045 41.9677L47.9004 41.931L47.937 41.9677L47.9736 42.2972L48.3764 42.0043L48.7427 41.8579Z" fill="#676C71"/>
<path d="M39.8803 41.1255H41.1255L41.4185 41.2353L41.7115 41.4916L41.858 41.7846V42.224L41.7115 42.5535L41.4185 42.8099L41.0889 42.9197H39.8803L39.8438 42.8832V41.1621L39.8803 41.1255Z" fill="#FEFEFE"/>
<path d="M34.2046 61.5955H34.8273L34.8638 61.6321V65.9165H34.2046L34.168 65.88V61.6321L34.2046 61.5955Z" fill="#FEFEFE"/>
<path d="M44.6406 43.9453H45.0801L45.4829 44.0186L45.7758 44.165L45.8125 44.3115L45.7026 44.6411L45.4462 44.9707L45.1166 45.1903L44.8602 45.2636H44.4575L44.0913 45.0805L43.9448 44.8608L43.9082 44.5312L44.0547 44.2383L44.3477 44.0186L44.6406 43.9453Z" fill="#FEFEFE"/>
<path d="M39.6602 62.2546H40.5391L40.8686 62.3646L41.0883 62.6208L41.1616 62.8039V63.1335L41.0516 63.3533L40.8686 63.4998L40.6122 63.6096H39.6602V62.2546Z" fill="#676C71"/>
<path d="M22.8887 62.2546H23.731L24.0605 62.3646L24.317 62.6575L24.3535 62.7673V63.1701L24.207 63.3898L23.9507 63.573L23.8043 63.6096H22.8887V62.2546Z" fill="#676C71"/>
<path d="M19.4453 62.2913H20.434L20.6903 62.4011L20.8735 62.6208L20.9467 62.987L20.8368 63.28L20.6538 63.4997L20.3973 63.6095H19.4819L19.4453 63.5729V62.2913Z" fill="#676C71"/>
<path d="M34.7895 42.5171H35.2656L35.5952 42.6636L35.8881 42.92L36.0346 43.2129V43.3594L35.9614 43.396H33.9838L33.9473 43.2862L34.1303 42.9565L34.2768 42.7735L34.643 42.5538L34.7895 42.5171Z" fill="#FEFEFE"/>
<path d="M58.4107 42.5171H58.8502L59.1797 42.627L59.5092 42.92L59.6924 43.2862V43.3594L59.6191 43.396H57.5684L57.6049 43.2129L57.8248 42.8833L58.1177 42.627L58.4107 42.5171Z" fill="#FEFEFE"/>
</g>
</g>
<defs>
<clipPath id="clip0_14030_984">
<rect width="75" height="71.4844" fill="white"/>
</clipPath>
</defs>
</svg>
