<svg width="72" height="72" viewBox="0 0 72 72" fill="none" xmlns="http://www.w3.org/2000/svg">
<g clip-path="url(#clip0_14029_952)">
<path d="M66.24 72H5.76C2.592 72 0 69.408 0 66.24V5.76C0 2.592 2.592 0 5.76 0H66.24C69.408 0 72 2.592 72 5.76V66.24C72 69.408 69.408 72 66.24 72Z" fill="#421983"/>
<path d="M34.8476 29.9518L21.8876 42.9118C21.6716 43.1278 21.6716 43.4518 21.8876 43.6678L47.8076 69.5878C48.0236 69.8038 48.3476 69.8038 48.5636 69.5878L61.5236 56.6278C62.7476 55.4038 64.6556 55.2238 66.0956 56.1238C66.3476 56.3038 66.7076 56.0878 66.7076 55.7638V25.3078C66.7076 25.0198 66.4556 24.7678 66.1676 24.7678H35.6756C35.3516 24.7678 35.1716 25.1278 35.3156 25.3798C36.2516 26.7838 36.0716 28.6918 34.8476 29.9518Z" fill="#6B30C7"/>
<path d="M11.4485 35.604H13.4285L18.1085 47.808H16.2005L14.7245 43.848H10.1165L8.64054 47.808H6.76855L11.4485 35.604ZM14.1125 42.228L12.4205 37.656L10.7285 42.228H14.1125Z" fill="white"/>
<path d="M22.8244 39.564C23.9404 39.564 24.8764 40.032 25.5244 40.788L25.5964 39.708H27.1444V47.7C27.1444 49.968 25.5964 51.552 23.0764 51.552C20.8084 51.552 19.4404 50.364 19.1884 48.816L20.9164 48.492C21.0964 49.464 21.8524 50.004 23.1124 50.004C24.5524 50.004 25.4884 49.212 25.4884 47.844V46.656C24.8404 47.412 23.9044 47.844 22.8244 47.844C20.5564 47.844 18.9004 46.116 18.9004 43.74C18.9004 41.292 20.5564 39.564 22.8244 39.564ZM23.0764 46.26C24.5164 46.26 25.4884 45.216 25.4884 43.704C25.4884 42.156 24.5164 41.112 23.0764 41.112C21.6364 41.112 20.6644 42.156 20.6644 43.704C20.6284 45.216 21.6364 46.26 23.0764 46.26Z" fill="white"/>
<path d="M29.0518 43.74C29.0518 41.328 30.7798 39.564 33.1558 39.564C35.4958 39.564 37.1158 41.148 37.1158 43.452C37.1158 43.704 37.0798 43.956 37.0438 44.244H30.7798C30.9598 45.756 31.8958 46.476 33.2638 46.476C34.4518 46.476 35.1358 45.936 35.4598 45.072L37.0798 45.36C36.6478 46.98 35.2438 47.952 33.2998 47.952C30.6718 47.952 29.0518 46.188 29.0518 43.74ZM30.8518 42.876H35.3158C35.1358 41.688 34.3438 41.004 33.1558 41.004C32.1118 40.968 31.1398 41.616 30.8518 42.876Z" fill="white"/>
<path d="M39.0957 39.708H40.6437L40.7157 40.716C41.3277 39.996 42.1917 39.564 43.2357 39.564C44.9637 39.564 46.4037 40.716 46.4037 42.948V47.808H44.7117V43.164C44.7117 41.796 43.9197 41.112 42.8397 41.112C41.8317 41.112 40.7877 41.688 40.7877 43.272V47.808H39.0957V39.708Z" fill="white"/>
<path d="M52.2364 39.564C54.2164 39.564 55.6204 40.716 55.9804 42.444L54.2884 42.732C54.0364 41.76 53.2804 41.148 52.2364 41.148C50.8324 41.148 49.8604 42.156 49.8604 43.776C49.8604 45.36 50.8324 46.44 52.2364 46.44C53.4244 46.44 54.1804 45.756 54.3964 44.748L56.0884 45.036C55.8004 46.728 54.2884 47.952 52.2724 47.952C49.8964 47.952 48.1324 46.188 48.1324 43.74C48.0964 41.328 49.8604 39.564 52.2364 39.564Z" fill="white"/>
<path d="M58.3924 39.708L60.9124 45.612L63.1084 39.708H64.8724L60.3004 51.372H58.5724L59.9764 47.736L56.4844 39.708H58.3924Z" fill="white"/>
<path d="M7.91992 51.876H12.4919C14.9759 51.876 16.5959 53.46 16.5959 55.656C16.5959 57.816 14.9759 59.436 12.4919 59.436H9.71992V64.08H7.91992V51.876ZM9.71992 53.532V57.816H12.4919C13.8959 57.816 14.7599 56.952 14.7599 55.656C14.7599 54.324 13.8959 53.496 12.4919 53.496H9.71992V53.532Z" fill="white"/>
<path d="M23.1479 62.7481C22.4999 63.6841 21.5279 64.224 20.3039 64.224C18.7919 64.224 17.7118 63.36 17.7118 61.884C17.7118 60.264 19.0798 59.616 20.8798 59.184L23.0758 58.68C22.8958 57.672 22.2118 57.24 21.2758 57.24C20.2318 57.24 19.5478 57.672 19.2958 58.644L17.6758 58.3561C18.0718 56.8081 19.3678 55.8 21.2758 55.8C23.3638 55.8 24.7318 56.9161 24.7318 59.0761V64.08H23.2198L23.1479 62.7481ZM20.5918 62.82C21.8518 62.82 23.1118 61.9561 23.1118 60.2281V60.048L20.9518 60.588C20.0158 60.804 19.4398 61.128 19.4398 61.812C19.4398 62.424 19.9078 62.82 20.5918 62.82Z" fill="white"/>
<path d="M27.1084 55.9798H28.6924L28.7644 57.0958C29.2324 56.3398 30.0244 55.8718 31.1044 55.8718C31.3924 55.8718 31.6084 55.9078 31.8964 55.9798L31.6804 57.5998C31.3924 57.5278 31.1404 57.4918 30.8524 57.4918C29.7364 57.4918 28.8004 58.3198 28.8004 59.8678V64.0798H27.1084V55.9798Z" fill="white"/>
<path d="M35.1715 54.324H35.5675V56.016H38.4835V57.492H35.5675V61.416C35.5675 62.316 35.9995 62.712 36.8275 62.712C37.1875 62.712 37.5835 62.604 38.0155 62.424L38.4115 63.792C37.8355 64.08 37.1875 64.224 36.5035 64.224C34.8835 64.224 33.9115 63.324 33.9115 61.74V57.456H32.4355V57.024L35.1715 54.324Z" fill="white"/>
<path d="M39.9961 55.9799H41.5441L41.6162 56.9879C42.2282 56.2679 43.0922 55.8359 44.1362 55.8359C45.8642 55.8359 47.3042 56.9879 47.3042 59.22V64.08H45.6122V59.436C45.6122 58.068 44.8202 57.3839 43.7402 57.3839C42.7322 57.3839 41.6882 57.9599 41.6882 59.5439V64.08H39.9961V55.9799Z" fill="white"/>
<path d="M49.0312 60.0119C49.0312 57.5999 50.7593 55.8359 53.1353 55.8359C55.4753 55.8359 57.0953 57.4199 57.0953 59.7239C57.0953 59.9759 57.0592 60.2279 57.0232 60.5159H50.7593C50.9393 62.0279 51.8752 62.7479 53.2432 62.7479C54.4312 62.7479 55.1153 62.2079 55.4393 61.3439L57.0593 61.6319C56.6273 63.2519 55.2233 64.2239 53.2793 64.2239C50.6513 64.2239 49.0312 62.4599 49.0312 60.0119ZM50.8313 59.1479H55.2953C55.1153 57.9599 54.3233 57.2759 53.1353 57.2759C52.0553 57.2759 51.1193 57.8879 50.8313 59.1479Z" fill="white"/>
<path d="M59.04 55.9798H60.624L60.696 57.0958C61.164 56.3398 61.956 55.8718 63.036 55.8718C63.324 55.8718 63.54 55.9078 63.828 55.9798L63.612 57.6358C63.324 57.5638 63.072 57.5278 62.784 57.5278C61.668 57.5278 60.732 58.3558 60.732 59.9038V64.0798H59.04V55.9798Z" fill="white"/>
<path d="M46.476 10.872C46.476 9.93595 45.9 9.25195 44.82 9.25195H41.292V14.076H42.444V12.42H43.812L45.18 14.076H46.476V13.968L45.18 12.384C45.972 12.24 46.476 11.664 46.476 10.872ZM44.676 11.484H42.444V10.296H44.676C45.108 10.296 45.36 10.512 45.36 10.908C45.36 11.268 45.108 11.484 44.676 11.484Z" fill="white"/>
<path d="M64.0804 9.28809H63.0004V11.0881H60.0484V9.28809H58.8604V14.1121H60.0484V12.2041H63.0004V14.1121H64.0804V9.28809Z" fill="white"/>
<path d="M38.1242 9.28809L36.8282 13.3201H36.7562L35.4602 9.28809H33.4082V14.1121H34.4882V10.1521H34.5602L35.8562 14.1121H37.6562L38.9522 10.1521H39.0242V14.1121H40.1762V9.28809H38.1242Z" fill="white"/>
<path d="M25.4524 11.232C25.0564 11.196 24.2644 11.124 23.8684 11.088C23.4724 11.052 23.2204 10.944 23.2204 10.656C23.2204 10.404 23.4724 10.188 24.4804 10.188C25.3804 10.188 26.1724 10.368 26.8924 10.728V9.64804C26.1724 9.32404 25.3804 9.14404 24.4084 9.14404C23.0404 9.14404 22.0684 9.72004 22.0684 10.692C22.0684 11.52 22.6084 11.952 23.7604 12.096C24.1564 12.132 24.8404 12.204 25.3444 12.24C25.8844 12.276 26.0284 12.456 26.0284 12.672C26.0284 12.996 25.6684 13.212 24.7324 13.212C23.7964 13.212 22.8244 12.888 22.1404 12.456V13.572C22.6804 13.932 23.6524 14.256 24.6964 14.256C26.2084 14.256 27.1444 13.68 27.1444 12.636C27.1444 11.844 26.6404 11.376 25.4524 11.232Z" fill="white"/>
<path d="M27.9004 9.28809V14.1121H32.4004V13.1041H29.0164V12.1321H32.3644V11.1601H29.0164V10.2601H32.4004V9.28809H27.9004Z" fill="white"/>
<path d="M56.4485 11.232C56.0525 11.196 55.2605 11.124 54.8645 11.088C54.4685 11.052 54.2165 10.944 54.2165 10.656C54.2165 10.404 54.4685 10.188 55.4765 10.188C56.3765 10.188 57.1685 10.368 57.8885 10.728V9.64804C57.1685 9.32404 56.3765 9.14404 55.4045 9.14404C54.0365 9.14404 53.0645 9.72004 53.0645 10.692C53.0645 11.52 53.6045 11.952 54.7565 12.096C55.1525 12.132 55.8365 12.204 56.3405 12.24C56.8805 12.276 57.0245 12.456 57.0245 12.672C57.0245 12.996 56.6645 13.212 55.7285 13.212C54.7925 13.212 53.8205 12.888 53.1365 12.456V13.572C53.6765 13.932 54.6485 14.256 55.6925 14.256C57.2045 14.256 58.1405 13.68 58.1405 12.636C58.1765 11.844 57.6365 11.376 56.4485 11.232Z" fill="white"/>
<path d="M51.156 9.28809V11.7721C51.156 12.7081 50.58 13.2121 49.716 13.2121C48.852 13.2121 48.276 12.7081 48.276 11.7361V9.28809H47.124V11.6281C47.124 13.3921 48.204 14.2561 49.716 14.2561C51.156 14.2561 52.272 13.4281 52.272 11.7001V9.28809H51.156Z" fill="white"/>
<path d="M18.1082 11.6639C18.1082 11.9159 18.0002 11.9519 17.6762 11.9519C17.3522 11.9519 17.3162 11.8799 17.2802 11.6639C17.2082 11.0519 16.8122 10.5479 16.1282 10.4759C15.8762 10.4399 15.8402 10.3679 15.8402 10.0799C15.8402 9.82792 15.8762 9.71992 16.0922 9.71992C17.2802 9.71992 18.1082 10.6919 18.1082 11.6639ZM19.8362 11.6639C19.8362 9.82792 18.6122 7.91992 15.7682 7.91992H10.1162C10.0082 7.91992 9.9362 7.99192 9.9362 8.09992C9.9362 8.17192 9.9722 8.20792 10.0082 8.24392C10.2242 8.42392 10.5122 8.56792 10.9082 8.78392C11.3042 8.96392 11.5922 9.10792 11.9162 9.21592C12.0602 9.25192 12.0962 9.32392 12.0962 9.39592C12.0962 9.50392 12.0242 9.53992 11.8802 9.53992H7.3802C7.2362 9.53992 7.2002 9.61192 7.2002 9.71992C7.2002 9.79192 7.2362 9.86392 7.2722 9.89992C7.6322 10.2959 8.2082 10.7279 9.0722 11.2679C9.8282 11.7359 10.7282 12.2399 11.4482 12.5639C11.5562 12.6359 11.6282 12.7079 11.5922 12.7439C11.5922 12.8159 11.5202 12.8879 11.3762 12.8879H9.3602C9.2522 12.8879 9.1802 12.9599 9.1802 13.0319C9.1802 13.0679 9.2162 13.1399 9.2882 13.2119C9.7562 13.6439 10.5122 14.1119 11.4842 14.5079C12.8162 15.0839 14.1842 15.4079 15.6962 15.4079C18.5762 15.5159 19.8362 13.3559 19.8362 11.6639ZM16.0922 14.3639C14.6162 14.3639 13.3922 13.1759 13.3922 11.6639C13.3922 10.1879 14.6162 8.99992 16.0922 8.99992C17.6042 8.99992 18.7922 10.1879 18.7922 11.6639C18.7562 13.1399 17.5682 14.3639 16.0922 14.3639Z" fill="#FF642D"/>
<path d="M10.5122 24.6599C12.0242 24.6599 13.1762 25.5239 13.4642 26.8919L12.4562 27.1799C12.2402 26.2079 11.5922 25.5959 10.5122 25.5959C9.0722 25.5959 8.2802 26.7479 8.2802 28.1159C8.2802 29.4839 9.0722 30.6359 10.5122 30.6359C11.6282 30.6359 12.3482 29.9879 12.5282 29.0519L13.5362 29.3399C13.1762 30.7439 12.0602 31.5719 10.4762 31.5719C8.4242 31.5719 7.2002 30.0599 7.2002 28.1159C7.2002 26.2079 8.5322 24.6599 10.5122 24.6599Z" fill="white"/>
<path d="M14.1484 29.2679C14.1484 27.9359 15.0844 26.9639 16.4164 26.9639C17.7124 26.9639 18.6124 27.8279 18.6124 29.0879C18.6124 29.2319 18.6124 29.3759 18.5764 29.5199H15.1204C15.1924 30.3479 15.7324 30.7439 16.4884 30.7439C17.1364 30.7439 17.5324 30.4559 17.6764 29.9879L18.5764 30.1319C18.3244 31.0319 17.5684 31.5719 16.4884 31.5719C15.0484 31.5719 14.1484 30.5999 14.1484 29.2679ZM15.1564 28.7639H17.6404C17.5684 28.1159 17.1004 27.7199 16.4524 27.7199C15.8404 27.7199 15.3004 28.0799 15.1564 28.7639Z" fill="white"/>
<path d="M19.6921 27.0358H20.5561L20.5921 27.6479C20.8441 27.2519 21.2761 26.9639 21.8881 26.9639C22.0321 26.9639 22.1401 26.9998 22.3201 27.0358L22.1761 27.9359C22.0321 27.8999 21.8881 27.8639 21.7081 27.8639C21.0961 27.8639 20.5561 28.3319 20.5561 29.1599V31.4999H19.6201V27.0358H19.6921Z" fill="white"/>
<path d="M24.1565 26.1001H24.3725V27.0361H25.9925V27.8281H24.3725V29.9881C24.3725 30.4921 24.6245 30.7081 25.0565 30.7081C25.2725 30.7081 25.4885 30.6361 25.7045 30.5641L25.9205 31.3201C25.5965 31.4641 25.2365 31.5721 24.8765 31.5721C23.9765 31.5721 23.4365 31.0681 23.4365 30.2041V27.8281H22.6445V27.5761L24.1565 26.1001Z" fill="white"/>
<path d="M27.2884 24.9839C27.6484 24.9839 27.9004 25.2359 27.9004 25.5598C27.9004 25.9198 27.6484 26.1358 27.2884 26.1358C26.9644 26.1358 26.7124 25.8838 26.7124 25.5598C26.6764 25.2359 26.9284 24.9839 27.2884 24.9839ZM26.8204 27.0358H27.7564V31.4998H26.8204V27.0358Z" fill="white"/>
<path d="M30.4917 27.8279V31.4999H29.5557V27.8279H28.5117V27.5759L29.0157 26.9999H29.5917V26.2799C29.5917 25.3079 30.2757 24.6599 31.1757 24.6599C31.4277 24.6599 31.6437 24.6959 31.8957 24.7679L31.7157 25.5599C31.5357 25.5239 31.4277 25.4519 31.2477 25.4519C30.7797 25.4519 30.4917 25.7039 30.4917 26.2079V26.9639H32.0397V27.7559H30.4917V27.8279ZM33.1557 24.9839C33.5157 24.9839 33.7677 25.2359 33.7677 25.5599C33.7677 25.9199 33.5157 26.1359 33.1557 26.1359C32.8317 26.1359 32.5797 25.8839 32.5797 25.5599C32.5437 25.2359 32.7957 24.9839 33.1557 24.9839ZM32.6877 27.0359H33.6237V31.4999H32.6877V27.0359Z" fill="white"/>
<path d="M34.668 29.2679C34.668 27.9359 35.604 26.9639 36.936 26.9639C38.232 26.9639 39.132 27.8279 39.132 29.0879C39.132 29.2319 39.132 29.3759 39.096 29.5199H35.64C35.712 30.3479 36.252 30.7439 37.008 30.7439C37.656 30.7439 38.052 30.4559 38.196 29.9879L39.096 30.1319C38.844 31.0319 38.088 31.5719 37.008 31.5719C35.568 31.5719 34.668 30.5999 34.668 29.2679ZM35.676 28.7639H38.16C38.088 28.1159 37.62 27.7199 36.972 27.7199C36.36 27.7199 35.82 28.0799 35.676 28.7639Z" fill="white"/>
<path d="M43.5956 31.5001L43.5596 30.8881C43.1996 31.3201 42.6596 31.5721 42.0476 31.5721C40.7876 31.5721 39.8516 30.6001 39.8516 29.2681C39.8516 27.9361 40.7876 26.9641 42.0476 26.9641C42.6596 26.9641 43.1636 27.2161 43.5236 27.6121V24.7681H44.4596V31.5001H43.5956ZM40.8236 29.2681C40.8236 30.1321 41.3636 30.7441 42.1556 30.7441C42.9476 30.7441 43.4876 30.1681 43.4876 29.2681C43.4876 28.3681 42.9476 27.8281 42.1556 27.8281C41.3636 27.7921 40.8236 28.4041 40.8236 29.2681Z" fill="white"/>
</g>
<defs>
<clipPath id="clip0_14029_952">
<rect width="72" height="72" fill="white"/>
</clipPath>
</defs>
</svg>
